<svg width="101" height="121" viewBox="0 0 101 121" fill="none" xmlns="http://www.w3.org/2000/svg">
<path d="M41.6364 66.6364C41.2273 63.1818 39.5682 60.5 36.6591 58.5909C33.75 56.6818 30.1818 55.7273 25.9545 55.7273C22.8636 55.7273 20.1591 56.2273 17.8409 57.2273C15.5455 58.2273 13.75 59.6023 12.4545 61.3523C11.1818 63.1023 10.5455 65.0909 10.5455 67.3182C10.5455 69.1818 10.9886 70.7841 11.875 72.125C12.7841 73.4432 13.9432 74.5455 15.3523 75.4318C16.7614 76.2955 18.2386 77.0114 19.7841 77.5795C21.3295 78.125 22.75 78.5682 24.0455 78.9091L31.1364 80.8182C32.9545 81.2955 34.9773 81.9545 37.2045 82.7955C39.4545 83.6364 41.6023 84.7841 43.6477 86.2386C45.7159 87.6705 47.4205 89.5114 48.7614 91.7614C50.1023 94.0114 50.7727 96.7727 50.7727 100.045C50.7727 103.818 49.7841 107.227 47.8068 110.273C45.8523 113.318 42.9886 115.739 39.2159 117.534C35.4659 119.33 30.9091 120.227 25.5455 120.227C20.5455 120.227 16.2159 119.42 12.5568 117.807C8.92045 116.193 6.05682 113.943 3.96591 111.057C1.89773 108.17 0.727273 104.818 0.454546 101H9.18182C9.40909 103.636 10.2955 105.818 11.8409 107.545C13.4091 109.25 15.3864 110.523 17.7727 111.364C20.1818 112.182 22.7727 112.591 25.5455 112.591C28.7727 112.591 31.6705 112.068 34.2386 111.023C36.8068 109.955 38.8409 108.477 40.3409 106.591C41.8409 104.682 42.5909 102.455 42.5909 99.9091C42.5909 97.5909 41.9432 95.7045 40.6477 94.25C39.3523 92.7955 37.6477 91.6136 35.5341 90.7045C33.4205 89.7955 31.1364 89 28.6818 88.3182L20.0909 85.8636C14.6364 84.2955 10.3182 82.0568 7.13636 79.1477C3.95455 76.2386 2.36364 72.4318 2.36364 67.7273C2.36364 63.8182 3.42045 60.4091 5.53409 57.5C7.67045 54.5682 10.5341 52.2955 14.125 50.6818C17.7386 49.0455 21.7727 48.2273 26.2273 48.2273C30.7273 48.2273 34.7273 49.0341 38.2273 50.6477C41.7273 52.2386 44.5 54.4205 46.5455 57.1932C48.6136 59.9659 49.7045 63.1136 49.8182 66.6364H41.6364Z" fill="white"/>
<path d="M91.6364 66.6364C91.2273 63.1818 89.5682 60.5 86.6591 58.5909C83.75 56.6818 80.1818 55.7273 75.9545 55.7273C72.8636 55.7273 70.1591 56.2273 67.8409 57.2273C65.5455 58.2273 63.75 59.6023 62.4545 61.3523C61.1818 63.1023 60.5455 65.0909 60.5455 67.3182C60.5455 69.1818 60.9886 70.7841 61.875 72.125C62.7841 73.4432 63.9432 74.5455 65.3523 75.4318C66.7614 76.2955 68.2386 77.0114 69.7841 77.5795C71.3295 78.125 72.75 78.5682 74.0455 78.9091L81.1364 80.8182C82.9545 81.2955 84.9773 81.9545 87.2045 82.7955C89.4545 83.6364 91.6023 84.7841 93.6477 86.2386C95.7159 87.6705 97.4205 89.5114 98.7614 91.7614C100.102 94.0114 100.773 96.7727 100.773 100.045C100.773 103.818 99.7841 107.227 97.8068 110.273C95.8523 113.318 92.9886 115.739 89.2159 117.534C85.4659 119.33 80.9091 120.227 75.5455 120.227C70.5455 120.227 66.2159 119.42 62.5568 117.807C58.9205 116.193 56.0568 113.943 53.9659 111.057C51.8977 108.17 50.7273 104.818 50.4545 101H59.1818C59.4091 103.636 60.2955 105.818 61.8409 107.545C63.4091 109.25 65.3864 110.523 67.7727 111.364C70.1818 112.182 72.7727 112.591 75.5455 112.591C78.7727 112.591 81.6705 112.068 84.2386 111.023C86.8068 109.955 88.8409 108.477 90.3409 106.591C91.8409 104.682 92.5909 102.455 92.5909 99.9091C92.5909 97.5909 91.9432 95.7045 90.6477 94.25C89.3523 92.7955 87.6477 91.6136 85.5341 90.7045C83.4205 89.7955 81.1364 89 78.6818 88.3182L70.0909 85.8636C64.6364 84.2955 60.3182 82.0568 57.1364 79.1477C53.9545 76.2386 52.3636 72.4318 52.3636 67.7273C52.3636 63.8182 53.4205 60.4091 55.5341 57.5C57.6705 54.5682 60.5341 52.2955 64.125 50.6818C67.7386 49.0455 71.7727 48.2273 76.2273 48.2273C80.7273 48.2273 84.7273 49.0341 88.2273 50.6477C91.7273 52.2386 94.5 54.4205 96.5455 57.1932C98.6136 59.9659 99.7045 63.1136 99.8182 66.6364H91.6364Z" fill="white"/>
<path d="M64 59.6364L64 51.1818C66.4318 50.6818 68.5682 49.8068 70.4091 48.5568C72.25 47.3295 73.7955 45.8295 75.0455 44.0568C76.3182 42.3068 77.2727 40.3636 77.9091 38.2273C78.5455 36.0909 78.8636 33.8636 78.8636 31.5455C78.8636 27.3182 77.7955 23.4886 75.6591 20.0568C73.5227 16.6477 70.375 13.9318 66.2159 11.9091C62.0568 9.90909 56.9545 8.90909 50.9091 8.90909C44.8636 8.90909 39.7614 9.90909 35.6023 11.9091C31.4432 13.9318 28.2955 16.6477 26.1591 20.0568C24.0227 23.4886 22.9545 27.3182 22.9545 31.5455C22.9545 33.8636 23.2727 36.0909 23.9091 38.2273C24.5455 40.3636 25.4886 42.3068 26.7386 44.0568C28.0114 45.8295 29.5682 47.3295 31.4091 48.5568C33.2727 49.8068 35.4091 50.6818 37.8182 51.1818L37.8182 59.6364C34.25 59 31.0568 57.8409 28.2386 56.1591C25.4205 54.4773 23.0227 52.3864 21.0455 49.8864C19.0909 47.3864 17.6023 44.5795 16.5795 41.4659C15.5568 38.375 15.0455 35.0682 15.0455 31.5455C15.0455 25.5909 16.5 20.2955 19.4091 15.6591C22.3182 11.0227 26.4545 7.375 31.8182 4.71591C37.1818 2.05682 43.5455 0.72727 50.9091 0.72727C58.2727 0.727271 64.6364 2.05682 70 4.71591C75.3636 7.375 79.5 11.0227 82.4091 15.6591C85.3182 20.2955 86.7727 25.5909 86.7727 31.5455C86.7727 35.0682 86.2614 38.375 85.2386 41.4659C84.2159 44.5795 82.7159 47.3864 80.7386 49.8864C78.7841 52.3864 76.3977 54.4773 73.5795 56.1591C70.7841 57.8409 67.5909 59 64 59.6364Z" fill="white"/>
</svg>
